# xmcd CD database file
#
# Track frame offsets:
#	150
#	15668
#	30381
#	47961
#	68410
#	85734
#	104718
#	118124
#	134852
#	147680
#
# Disc length: 2213 seconds
#
# Revision: 0
# Processed by: cddbd v1.5.2PL0 Copyright (c) Steve Scherf et al.
# Submitted via: CDex 1.79
#
DISCID=9208a30a
DTITLE=The Booty Hunters - Brothers In Farms
DYEAR=2013
DGENRE=Country
TTITLE0=Crowed Blues
TTITLE1=Dad Way
TTITLE2=Two Hells
TTITLE3=Walking on Fire
TTITLE4=City Sucks
TTITLE5=Blood Neighborhood
TTITLE6=El Folla Cerdas
TTITLE7=Spirit
TTITLE8=Son of Evil
TTITLE9=Candy Bag
EXTD=YEAR: 2013
EXTT0=
EXTT1=
EXTT2=
EXTT3=
EXTT4=
EXTT5=
EXTT6=
EXTT7=
EXTT8=
EXTT9=
PLAYORDER=
